# xmcd
#
# Track frame offsets:
#	150
#	26046
#	42569
#	60305
#	75619
#	97836
#	114714
#	138498
#	162129
#	166235
#	186898
#	226683
#	246731
#	267149
#	297963
#	326427
#	345350
#
# Disc length: 4790 seconds
#
# Revision: 1
# Processed by: cddbd v1.5.1PL2 Copyright (c) Steve Scherf et al.
# Submitted via: audiograbber 1.81.02
#
DISCID=e512b411
DTITLE=Sarah Brightman - HAREM
DYEAR=2004
DGENRE=Ambient
TTITLE0=Sarah Brightman                - Harem                         
TTITLE1=Sarah Brightman                - What A Wonderful World        
TTITLE2=Sarah Brightman                - It's A Beautiful Day          
TTITLE3=Sarah Brightman                - What You Never Know           
TTITLE4=Sarah Brightman                - The Journey Home              
TTITLE5=Sarah Brightman                - Free                          
TTITLE6=Sarah Brightman                - Mysterious Days               
TTITLE7=Sarah Brightman                - The War Is Over               
TTITLE8=Sarah Brightman                - Misere Mei                    
TTITLE9=Sarah Brightman                - Beautiful                     
TTITLE10=Sarah Brightman                - Arabian Nights                
TTITLE11=Sarah Brightman                - Stranger In Paradise          
TTITLE12=Sarah Brightman                - Until The End Of Time         
TTITLE13=Sarah Brightman                - You Take My Breath Away       
TTITLE14=Sarah Brightman - This Love
TTITLE15=Sarah Brightman - Scarborough Fair
TTITLE16=Sarah Brightman - La Califfa
EXTD=www.hightechnology.ro
EXTT0=www.hightechnology.ro
EXTT1=www.hightechnology.ro
EXTT2=www.hightechnology.ro
EXTT3=www.hightechnology.ro
EXTT4=www.hightechnology.ro
EXTT5=www.hightechnology.ro
EXTT6=www.hightechnology.ro
EXTT7=www.hightechnology.ro
EXTT8=www.hightechnology.ro
EXTT9=www.hightechnology.ro
EXTT10=www.hightechnology.ro
EXTT11=www.hightechnology.ro
EXTT12=www.hightechnology.ro
EXTT13=www.hightechnology.ro
EXTT14=www.hightechnology.ro
EXTT15=www.hightechnology.ro
EXTT16=www.hightechnology.ro
PLAYORDER=
